<?xml version="1.0" standalone="no"?>
<!DOCTYPE svg PUBLIC "-//W3C//DTD SVG 20010904//EN"
 "http://www.w3.org/TR/2001/REC-SVG-20010904/DTD/svg10.dtd">
<svg version="1.0" xmlns="http://www.w3.org/2000/svg"
 width="3072.000000pt" height="3072.000000pt" viewBox="0 0 3072.000000 3072.000000"
 preserveAspectRatio="xMidYMid meet">
<metadata>
Created by potrace 1.14, written by Peter Selinger 2001-2017
</metadata>
<g transform="translate(0.000000,3072.000000) scale(0.100000,-0.100000)"
fill="#000000" stroke="none">
<path d="M15430 29376 c-8 -8 -35 -21 -60 -29 -27 -9 -50 -24 -57 -37 -17 -35
-33 -40 -95 -34 -77 9 -104 0 -124 -38 -15 -28 -16 -57 -9 -243 11 -283 6
-1507 -6 -1698 -12 -180 -12 -159 -3 -367 3 -91 3 -162 -1 -158 -4 3 -13 57
-21 120 -8 62 -26 149 -39 193 -13 44 -31 114 -41 155 -9 41 -21 80 -26 86 -9
12 -17 53 -25 127 -3 27 -10 47 -17 47 -11 0 -66 95 -66 114 0 5 -16 26 -36
48 -28 32 -33 42 -24 54 19 22 4 64 -23 64 -13 0 -26 9 -32 23 -7 15 -18 21
-33 20 -12 -2 -22 2 -22 8 0 7 -18 32 -41 56 -30 33 -39 50 -35 66 6 25 -10
47 -34 47 -10 0 -24 10 -33 23 -12 17 -18 19 -27 10 -10 -9 -20 -1 -48 35 -19
26 -63 74 -97 107 -34 33 -65 70 -69 83 -6 17 -13 21 -31 16 -15 -4 -36 3 -61
19 -40 25 -104 50 -139 54 -11 1 -50 7 -87 12 -38 6 -96 15 -130 20 -99 15
-268 50 -315 66 -23 8 -68 15 -99 16 -49 2 -60 -1 -76 -21 -10 -12 -21 -33
-24 -45 -3 -13 -2 -191 3 -397 5 -205 10 -715 12 -1133 l2 -760 31 -48 c26
-40 31 -58 31 -110 0 -35 -9 -94 -22 -137 -16 -54 -23 -108 -25 -193 -3 -122
-9 -150 -21 -98 -4 17 -12 37 -18 44 -29 30 -48 81 -56 146 -8 63 -14 76 -48
112 -47 50 -76 79 -114 115 -19 18 -29 37 -29 56 0 23 -4 28 -25 28 -19 0 -25
5 -25 23 -1 12 -7 33 -15 47 -8 14 -14 36 -15 49 0 45 -71 171 -129 230 -97
99 -183 151 -291 179 -52 13 -117 27 -145 32 -27 4 -63 13 -80 20 -16 6 -61
16 -100 21 -38 6 -85 13 -103 16 -80 13 -138 -23 -167 -102 -8 -22 -28 -125
-45 -230 -46 -289 -46 -287 -110 -645 -72 -396 -119 -643 -126 -650 -3 -2 -9
2 -14 9 -4 8 -15 11 -24 8 -26 -10 -18 -87 9 -87 13 0 10 -81 -5 -110 -4 -8
-13 -51 -20 -95 -16 -111 -58 -338 -76 -408 -23 -89 -21 -143 6 -172 23 -24
23 -25 10 -130 l-13 -105 -54 -47 c-30 -25 -59 -57 -64 -72 -6 -14 -17 -72
-25 -129 -12 -86 -12 -164 -4 -470 5 -202 12 -390 15 -419 3 -28 5 -397 5
-819 l0 -767 38 -34 37 -34 0 -82 c-1 -49 -8 -106 -19 -142 -16 -53 -18 -85
-12 -270 3 -115 10 -262 15 -325 6 -63 17 -234 26 -380 9 -146 20 -328 25
-405 28 -411 32 -513 19 -536 -19 -37 -13 -187 10 -250 21 -58 30 -162 56
-654 8 -154 20 -361 25 -460 14 -260 28 -528 36 -699 l7 -148 33 -20 c36 -21
40 -32 50 -150 6 -71 4 -81 -22 -135 -27 -54 -29 -68 -32 -202 -2 -79 1 -185
7 -235 6 -50 24 -205 41 -344 16 -139 34 -325 40 -413 9 -156 9 -162 -11 -178
-11 -9 -25 -25 -32 -37 -7 -12 -25 -41 -42 -64 -28 -41 -30 -49 -30 -139 0
-86 3 -102 28 -149 l28 -54 -41 -126 c-23 -70 -49 -143 -58 -162 -11 -23 -17
-61 -17 -111 0 -89 12 -109 83 -141 54 -24 58 -57 9 -86 -29 -16 -78 -23 -313
-41 -288 -22 -490 -50 -579 -81 -239 -82 -458 -300 -556 -555 -5 -11 -19 -47
-33 -81 -40 -98 -160 -505 -202 -689 -122 -526 -171 -913 -210 -1669 -14 -264
-16 -430 -11 -845 3 -284 11 -586 16 -671 6 -85 16 -227 22 -315 10 -156 31
-402 49 -595 12 -128 66 -543 84 -655 9 -49 34 -202 56 -340 75 -454 142 -784
206 -1005 109 -374 205 -606 397 -958 89 -161 274 -431 376 -548 20 -23 83
-97 141 -165 58 -68 158 -180 224 -248 197 -208 251 -284 376 -535 76 -151
157 -247 261 -309 88 -52 168 -74 346 -97 194 -25 308 -25 503 0 192 25 190
25 190 0 0 -11 8 -23 18 -26 9 -4 33 -13 52 -22 l35 -17 -65 -6 c-36 -3 -83
-15 -105 -26 -22 -11 -57 -23 -78 -27 -32 -6 -41 -13 -53 -42 -8 -19 -18 -34
-22 -34 -5 0 -38 -28 -74 -62 -77 -75 -137 -182 -143 -257 -4 -46 -2 -51 35
-87 37 -36 44 -39 97 -39 52 -1 58 -3 61 -23 3 -18 -1 -22 -25 -22 -42 0 -163
-36 -181 -53 -14 -14 -13 -22 6 -79 19 -57 40 -193 39 -258 0 -14 3 -90 7
-170 3 -80 8 -325 11 -545 2 -221 8 -412 13 -425 9 -24 27 -511 26 -700 0 -52
-6 -174 -12 -270 -6 -96 -13 -235 -15 -308 l-5 -132 3334 0 3334 0 0 49 c0 27
-4 83 -9 123 -6 40 -17 156 -26 258 -9 102 -22 241 -30 310 -33 281 -55 708
-54 1050 0 80 -3 217 -6 305 -4 88 -7 193 -6 232 1 40 -3 153 -8 250 -21 344
-23 487 -8 530 25 72 2 91 -129 112 -33 5 -69 9 -80 8 -14 -2 -20 5 -22 29 -5
47 23 73 90 84 61 9 122 47 133 81 14 44 -93 202 -170 249 -21 13 -43 39 -54
63 -31 67 -52 74 -256 87 -99 6 -220 10 -270 9 -59 -1 -90 2 -93 10 -2 6 -2
11 0 12 2 0 68 7 148 14 483 47 498 50 600 153 76 78 110 140 126 232 3 19 12
51 19 70 8 19 28 87 46 150 40 145 67 239 78 265 4 11 15 40 23 65 39 115 69
183 127 290 94 172 135 250 223 420 44 85 91 173 103 195 73 129 239 586 300
824 l21 85 84 37 c47 20 94 41 105 47 53 26 138 73 162 90 16 11 48 31 73 45
137 77 413 318 535 468 33 40 81 96 106 124 26 27 54 66 64 85 10 19 37 61 61
93 24 31 53 77 64 101 12 24 29 52 39 63 10 11 22 30 26 44 4 13 27 62 51 109
24 47 55 116 68 155 21 61 28 71 54 76 40 8 48 14 83 66 52 75 79 165 79 263
0 100 -12 149 -46 189 -23 28 -24 32 -11 58 8 15 20 48 27 73 16 62 84 202
111 225 11 11 29 36 39 55 22 42 171 167 278 232 42 26 84 55 92 65 8 11 56
44 106 74 70 43 103 57 145 62 41 5 103 30 259 108 325 163 372 196 383 267 6
36 8 38 80 60 125 39 257 143 309 246 l19 38 -23 47 -23 46 45 47 c88 91 257
200 555 358 302 161 413 227 719 429 94 61 241 148 328 192 156 79 158 79 167
57 5 -13 23 -43 41 -67 l32 -43 98 4 c54 2 104 9 111 15 8 6 39 18 70 27 82
24 128 49 182 99 42 40 47 48 47 88 0 52 -29 120 -60 142 -21 15 -20 15 37 49
66 40 204 108 217 108 5 0 17 6 25 14 9 7 68 40 131 74 63 33 198 104 300 157
102 54 262 138 355 188 314 165 1052 537 1066 537 23 0 121 91 135 126 10 25
11 45 4 84 -11 60 -39 99 -95 132 l-40 23 28 3 c16 2 49 -7 77 -22 62 -33 70
-33 40 -1 -26 27 -92 50 -180 61 -30 3 -68 13 -83 21 -25 13 -34 12 -74 -1
-50 -17 -77 -10 -88 23 -3 10 -15 21 -25 24 -14 4 -20 14 -20 35 0 30 -14 42
-51 42 -36 0 -19 15 44 39 202 78 164 153 -133 261 -19 6 -53 15 -75 19 -23 4
-47 11 -54 16 -28 16 -699 25 -786 10 -38 -7 -39 -7 -25 11 71 89 39 117 -39
35 -27 -29 -59 -52 -76 -56 -16 -4 -37 -9 -45 -12 -8 -3 -30 -6 -48 -8 -23 -1
-41 -11 -56 -30 -17 -21 -37 -31 -82 -40 -33 -7 -58 -17 -57 -24 2 -6 -5 -11
-16 -11 -10 0 -24 -7 -31 -15 -9 -11 -16 -12 -26 -4 -16 13 -34 4 -34 -17 0
-8 -8 -14 -17 -14 -10 0 -38 -12 -63 -26 -25 -14 -61 -27 -80 -29 -60 -5 -88
-16 -105 -41 -18 -27 -111 -78 -126 -68 -6 3 -37 -8 -69 -25 -32 -17 -66 -31
-75 -31 -9 0 -43 -14 -75 -31 -32 -17 -63 -28 -69 -25 -5 4 -29 -2 -53 -13
-79 -34 -169 -63 -184 -57 -8 3 -22 1 -32 -4 -9 -5 -53 -21 -97 -35 -44 -15
-85 -31 -91 -36 -8 -7 -14 -6 -19 1 -9 15 -45 12 -45 -4 0 -8 6 -18 13 -23 12
-7 -17 -16 -103 -30 -32 -5 -102 -52 -140 -93 -8 -9 -42 -31 -75 -50 -33 -18
-73 -44 -88 -57 -16 -13 -34 -23 -41 -23 -8 0 -33 -9 -57 -19 -24 -11 -67 -22
-96 -25 -61 -5 -65 -7 -136 -69 -56 -50 -87 -110 -87 -171 0 -20 -10 -29 -57
-51 -32 -15 -75 -33 -96 -41 -22 -7 -76 -36 -120 -63 -45 -27 -125 -69 -177
-94 -124 -59 -238 -134 -273 -180 -32 -42 -83 -74 -186 -117 -74 -30 -126 -33
-157 -8 -7 5 -42 15 -79 23 -37 7 -69 16 -72 19 -3 3 -14 1 -23 -4 -13 -7 -20
-5 -24 6 -5 13 -16 15 -51 12 -28 -4 -48 -1 -55 6 -20 26 -189 -20 -254 -68
-17 -13 -49 -29 -71 -36 -22 -7 -54 -20 -70 -29 -28 -16 -76 -33 -100 -36 -5
-1 -26 -11 -45 -23 -19 -12 -40 -22 -46 -22 -6 0 -41 -16 -77 -35 -36 -19 -75
-35 -85 -35 -11 0 -25 -7 -32 -15 -7 -8 -18 -15 -24 -15 -6 0 -36 -13 -66 -30
-30 -16 -65 -34 -77 -39 -11 -5 -24 -15 -28 -20 -3 -6 -13 -11 -22 -11 -8 0
-34 -12 -57 -28 -22 -15 -104 -58 -181 -95 -77 -38 -184 -90 -238 -118 -54
-27 -104 -49 -111 -49 -8 0 -19 -6 -25 -14 -7 -8 -21 -12 -31 -9 -11 3 -20 1
-20 -5 0 -12 -91 -52 -119 -52 -11 0 -22 -4 -26 -9 -3 -5 -37 -18 -77 -28 -61
-15 -73 -22 -82 -45 -6 -15 -19 -28 -30 -30 -12 -2 -22 -12 -25 -23 -6 -35
-53 -85 -98 -106 -24 -11 -78 -40 -119 -65 -42 -24 -78 -44 -81 -44 -8 0 -133
-58 -153 -70 -8 -5 -93 -50 -188 -101 -176 -92 -219 -105 -185 -53 10 16 16
42 14 65 -1 22 3 75 9 119 6 43 12 112 14 152 3 40 9 102 15 137 9 47 9 67 0
77 -7 8 -9 32 -5 61 3 27 6 63 5 81 0 20 6 35 16 38 20 8 19 57 -2 116 -14 39
-15 57 -7 97 8 37 7 53 -3 66 -9 13 -11 59 -8 177 2 88 6 162 9 166 3 3 -1 17
-10 30 -10 16 -18 52 -19 96 -2 39 -8 98 -14 131 -6 33 -11 83 -11 110 0 28
-7 79 -14 115 -9 39 -10 69 -5 75 13 14 11 58 -4 80 -24 35 -27 66 -32 380 -6
357 -21 778 -36 1045 -10 183 2 438 22 465 4 6 6 40 4 75 -2 35 0 95 5 132 6
38 13 112 16 166 3 53 8 104 11 112 5 15 15 93 33 276 5 56 17 135 25 175 9
39 13 80 10 90 -3 9 6 37 20 62 15 28 21 48 15 52 -15 10 -12 56 5 69 14 10
13 16 -5 51 -11 21 -20 48 -20 60 0 11 -16 32 -35 48 -19 15 -35 34 -35 42 0
8 -12 22 -27 32 -59 37 -118 85 -129 104 -13 26 -89 69 -279 163 -140 69 -155
74 -232 79 -45 3 -88 9 -95 13 -7 5 -31 9 -53 10 -22 1 -55 5 -73 8 -30 7 -32
10 -32 49 0 23 -5 58 -10 78 -8 27 -6 54 6 105 27 120 30 175 8 191 -20 15
-20 12 -28 273 -8 285 -42 472 -112 617 -19 40 -37 87 -40 105 -5 30 -2 35 35
56 23 12 41 27 41 32 0 6 28 9 68 7 53 -3 73 0 94 15 26 18 26 20 26 128 1 60
4 115 8 122 10 15 12 51 18 253 2 83 9 194 15 248 6 54 9 102 6 107 -3 5 -1
76 5 157 6 81 13 207 15 278 3 72 10 162 15 200 10 68 36 389 39 470 3 76 12
139 23 152 7 9 7 17 -1 27 -8 9 -10 36 -6 77 3 35 8 107 11 159 2 52 6 113 8
135 2 22 6 158 10 302 5 185 11 275 21 310 30 99 20 123 -57 137 -35 6 -37 8
-28 32 6 14 10 47 10 72 0 26 7 72 16 102 14 49 28 161 38 303 2 26 -2 75 -9
110 -7 34 -13 89 -14 122 -3 125 -25 176 -90 211 -20 10 -36 25 -35 32 1 6 2
36 3 65 1 45 6 59 35 90 18 20 41 37 49 37 9 0 24 8 34 19 10 10 36 22 58 26
75 13 80 25 90 235 4 63 8 124 11 135 5 25 23 249 30 380 3 55 8 111 12 125 3
14 7 59 8 100 3 105 4 110 16 110 7 0 6 5 -1 14 -9 10 -9 16 -1 21 6 4 7 12 3
18 -8 11 -9 31 -3 50 1 4 3 10 4 15 1 4 5 13 10 21 6 9 5 12 -1 8 -11 -7 -9
135 2 153 3 6 1 10 -5 10 -6 0 -8 5 -4 11 6 11 12 52 19 134 2 22 4 40 5 40 1
0 4 18 6 40 4 32 0 46 -17 64 -12 12 -22 33 -23 47 0 13 -3 24 -6 24 -3 0 -5
16 -5 35 0 19 2 35 6 35 3 0 5 18 5 40 -1 22 2 40 6 40 5 0 8 5 8 11 0 5 -4 8
-8 5 -5 -3 -9 1 -9 9 0 8 3 12 7 10 3 -2 4 34 3 80 -2 46 1 86 5 89 4 3 7 26
6 51 -1 26 2 105 6 176 10 138 3 173 -32 185 -10 3 -16 9 -13 14 3 4 -3 6 -13
3 -30 -7 -61 44 -44 71 3 6 7 18 7 26 0 8 5 15 12 15 6 0 15 3 19 7 3 4 -3 6
-15 3 -11 -2 -21 0 -21 6 0 5 4 9 9 9 4 0 7 12 5 27 -2 18 6 34 25 52 16 15
31 36 35 49 5 16 15 22 35 22 36 0 51 17 44 51 -5 25 -2 29 15 29 36 0 44 33
42 173 -3 217 -2 345 6 487 9 171 9 159 0 330 -5 81 -14 156 -21 170 -7 14
-15 43 -19 65 -8 43 -36 127 -63 185 -29 64 -42 95 -49 120 -4 13 -17 32 -30
43 -13 10 -26 34 -30 53 -3 19 -14 39 -24 44 -10 6 -22 19 -25 30 -4 13 -19
23 -37 27 -16 3 -35 15 -41 25 -7 11 -39 33 -73 49 -34 16 -72 41 -84 54 -13
14 -27 25 -32 25 -7 0 -77 53 -146 110 -19 16 -28 18 -43 9 -16 -8 -27 -6 -52
14 -52 39 -130 75 -213 97 -85 23 -217 81 -249 109 -50 44 -162 64 -201 36
-19 -13 -22 -28 -28 -137 -14 -245 -30 -371 -126 -1029 -11 -79 -29 -157 -41
-185 -18 -41 -22 -70 -24 -169 -1 -110 -11 -191 -51 -439 -17 -111 -17 -144 1
-176 22 -39 18 -91 -14 -156 -52 -106 -63 -177 -106 -724 -24 -305 -126 -1354
-155 -1595 -5 -44 -15 -147 -21 -230 -12 -146 -11 -151 10 -190 25 -48 27
-113 6 -196 -28 -105 -34 -176 -65 -689 -19 -310 -61 -893 -69 -960 -5 -36
-21 -96 -35 -135 -30 -82 -33 -153 -10 -235 14 -52 14 -77 -6 -341 -11 -156
-29 -403 -40 -549 -33 -451 -39 -498 -59 -538 -27 -54 -33 -127 -17 -202 12
-57 12 -90 -2 -260 -18 -226 -20 -368 -4 -396 8 -15 7 -23 -9 -40 -32 -34 -39
-104 -48 -519 -19 -770 -23 -835 -62 -843 -18 -3 -39 55 -39 107 0 17 -9 64
-20 103 -12 43 -18 86 -14 104 3 18 1 56 -5 85 -6 30 -14 144 -17 254 -16 518
-22 565 -89 703 -26 53 -57 109 -70 123 -12 15 -25 48 -29 75 -5 40 -3 49 14
61 14 10 20 25 20 53 0 45 7 49 81 42 33 -2 65 0 77 7 45 24 64 122 42 217 -5
22 -11 152 -14 288 -3 171 -8 252 -16 262 -9 10 -9 18 -2 27 8 10 7 49 -4 143
-24 197 -34 296 -43 444 -5 74 -13 146 -19 160 -9 24 -23 188 -29 355 -5 142
-20 339 -28 368 -5 17 -3 33 5 41 8 10 8 20 1 34 -9 16 -13 59 -11 131 0 13
-4 29 -10 36 -15 19 -29 560 -15 616 3 13 7 42 10 64 2 22 8 58 14 80 6 22 8
49 5 60 -3 11 4 41 15 65 25 54 26 88 5 111 -15 16 -15 26 0 111 9 51 20 112
24 135 5 24 5 68 0 105 -8 56 -13 67 -50 99 l-41 36 12 59 c10 45 10 66 1 89
-10 27 -19 128 -35 423 -3 62 -13 128 -21 147 -8 19 -14 47 -14 62 0 15 -9 47
-19 70 -16 35 -26 44 -60 53 -43 11 -71 33 -71 55 0 48 24 115 46 129 13 9 31
32 39 52 13 31 19 35 47 34 18 -1 54 -2 79 -1 l46 1 18 83 c17 85 15 119 -16
222 -7 26 -13 142 -15 325 -4 341 -8 473 -16 486 -4 5 -5 88 -3 184 4 168 8
241 20 361 5 45 2 60 -14 80 -12 16 -17 34 -14 52 5 25 3 27 -29 27 -35 0 -35
0 -36 48 -6 372 -11 505 -21 597 -20 178 -19 173 -51 190 -17 9 -30 19 -30 24
0 5 -13 14 -29 19 -22 8 -30 18 -35 45 -8 45 2 110 20 120 20 12 52 79 59 124
4 23 0 55 -9 82 -19 52 -21 108 -3 114 6 2 27 -9 45 -24 18 -16 39 -29 47 -29
19 0 45 51 45 87 -1 39 -35 247 -44 261 -4 6 -9 71 -11 144 -4 119 -8 196 -21
418 -5 94 -9 130 -39 380 -14 123 -24 235 -22 248 3 14 -2 36 -9 51 -8 14 -14
40 -14 56 0 37 -23 123 -41 157 -46 86 -95 166 -112 185 -11 12 -17 29 -14 38
10 24 -31 81 -128 179 -69 69 -106 101 -128 109 -11 4 -21 16 -24 27 -4 13
-14 20 -29 20 -16 0 -27 8 -33 23 -15 39 -73 97 -97 97 -13 0 -26 5 -29 10 -3
6 -18 10 -32 10 -28 0 -112 45 -158 85 -16 15 -42 29 -57 32 -21 4 -28 11 -28
29 0 23 -9 29 -39 24 -8 -1 -17 3 -21 10 -3 6 -24 12 -44 14 -25 1 -44 10 -55
24 -12 15 -23 19 -44 15 -15 -3 -30 -9 -33 -14 -14 -23 -95 3 -117 38 -10 17
-19 16 -37 -1z m-333 -3414 c2 -103 5 -212 9 -242 l6 -55 -47 45 c-45 44 -46
46 -40 95 4 27 2 86 -4 131 -11 78 -11 82 16 135 35 67 42 79 51 79 4 0 8 -84
9 -188z m-1723 -2510 c0 -306 3 -505 9 -517 6 -11 18 -26 28 -33 26 -18 43
-113 35 -197 -19 -190 -20 -282 -9 -583 6 -180 16 -473 22 -652 6 -179 13
-386 17 -461 l6 -136 -32 -11 c-49 -18 -86 -49 -106 -89 l-18 -38 -8 55 c-4
30 -10 65 -13 77 -6 27 -75 68 -129 78 -36 6 -38 8 -32 37 3 17 6 45 6 63 0
27 7 39 42 64 24 18 54 31 70 31 37 0 72 24 99 66 17 27 20 44 15 82 -3 26
-11 121 -16 212 -5 91 -14 224 -20 295 -5 72 -12 193 -15 270 -4 130 -13 303
-19 368 -1 15 -3 65 -4 112 -2 70 -6 89 -22 105 -16 16 -18 24 -9 46 19 52 1
802 -22 886 -6 24 -19 55 -30 69 -15 22 -17 37 -12 91 3 41 1 72 -6 86 -11 21
-10 22 28 22 37 0 71 19 71 40 0 4 8 6 19 3 14 -3 22 4 32 26 8 17 16 31 19
31 3 0 5 -224 4 -498z m-10 -3027 c9 -34 60 -90 96 -105 17 -7 32 -22 35 -34
6 -32 13 -446 7 -446 -3 0 -13 6 -21 13 -14 12 -41 24 -94 41 -16 5 -16 8 -1
46 9 23 13 51 10 65 -4 14 -11 69 -16 123 -20 195 -30 287 -36 305 -3 9 -1 17
4 17 6 0 13 -11 16 -25z m157 -1154 c3 -220 1 -295 -8 -298 -15 -5 -22 46 -28
207 -2 69 -7 179 -11 246 -6 112 7 270 25 299 10 17 19 -148 22 -454z m79
-2539 l0 -117 -44 -23 c-49 -26 -39 -29 -133 32 -32 20 -33 23 -33 89 0 68 2
72 42 68 9 -1 27 11 39 28 16 21 30 29 50 29 16 -1 32 2 36 5 3 4 15 7 25 7
16 0 18 -10 18 -118z m6276 -6789 c0 -49 2 -121 6 -160 4 -40 3 -86 -2 -103
-5 -18 -3 -102 5 -213 7 -100 12 -183 11 -184 -1 -2 -26 4 -56 13 -39 12 -85
15 -181 12 -135 -3 -139 -2 -139 42 0 9 7 23 16 31 45 37 68 138 54 242 -34
255 -33 238 -14 258 9 10 22 19 29 19 6 0 40 16 75 35 36 19 75 35 88 35 12 0
30 8 40 18 20 18 53 40 63 41 3 1 6 -38 5 -86z m2111 -323 c22 0 18 -5 -28
-37 -61 -41 -135 -103 -218 -180 -31 -29 -59 -53 -63 -53 -10 0 -16 31 -22
128 l-5 82 72 0 c61 1 83 6 142 35 39 19 76 32 83 29 8 -2 25 -4 39 -4z"/>
<path d="M19357 24949 c7 -7 15 -10 18 -7 3 3 -2 9 -12 12 -14 6 -15 5 -6 -5z"/>
<path d="M28251 13054 c0 -11 3 -14 6 -6 3 7 2 16 -1 19 -3 4 -6 -2 -5 -13z"/>
</g>
</svg>
